# xmcd
#
# Track frame offsets: 
#        150
#        20233
#        37012
#        53890
#        69319
#        84327
#        99726
#        113286
#        130880
#        146696
#        167084
#        181859
#        197329
#        214455
#
# Disc length: 3058 seconds
#
# Revision: 0
# Processed by: cddbd v1.5.2PL0 Copyright (c) Steve Scherf et al.
# Submitted via: ExactAudioCopy v1.0b1
#
DISCID=c20bf00e
DTITLE=Paul Scott - Paul Scott
DYEAR=2007
DGENRE=Country
TTITLE0=What A Life
TTITLE1=Losing Ground
TTITLE2=Make Me Believe
TTITLE3=Hick Pimpin'
TTITLE4=Behind Your Eyes
TTITLE5=Goodbye
TTITLE6=Hurt Somebody Else
TTITLE7=The Strongest
TTITLE8=Alive
TTITLE9=Don't Water Down The Whiskey
TTITLE10=Uh-Uh
TTITLE11=Hardest Thing To Say
TTITLE12=Take Me Baby
TTITLE13=Looking Back
EXTD=
EXTT0=
EXTT1=
EXTT2=
EXTT3=
EXTT4=
EXTT5=
EXTT6=
EXTT7=
EXTT8=
EXTT9=
EXTT10=
EXTT11=
EXTT12=
EXTT13=
PLAYORDER=
